<svg width="20" height="20" viewBox="0 0 20 20" fill="none" xmlns="http://www.w3.org/2000/svg">
<path d="M0.957397 8C0.674063 8 0.43673 7.9 0.245397 7.7C0.0533966 7.5 -0.0259369 7.26667 0.00739644 7C0.124063 5.9 0.41173 4.84567 0.870397 3.837C1.3284 2.829 1.9324 1.925 2.6824 1.125C2.86573 0.941667 3.09906 0.85 3.3824 0.85C3.66573 0.85 3.9074 0.95 4.1074 1.15C4.29073 1.33333 4.3824 1.55833 4.3824 1.825C4.3824 2.09167 4.29073 2.33333 4.1074 2.55C3.52406 3.18333 3.0534 3.87067 2.6954 4.612C2.33673 5.354 2.1074 6.15 2.0074 7C1.97406 7.28333 1.86173 7.52067 1.6704 7.712C1.4784 7.904 1.24073 8 0.957397 8ZM18.9574 8C18.6907 8 18.4574 7.904 18.2574 7.712C18.0574 7.52067 17.9407 7.28333 17.9074 7C17.8074 6.15 17.5784 5.354 17.2204 4.612C16.8617 3.87067 16.3907 3.18333 15.8074 2.55C15.6241 2.33333 15.5324 2.09167 15.5324 1.825C15.5324 1.55833 15.6324 1.33333 15.8324 1.15C16.0324 0.95 16.2697 0.85 16.5444 0.85C16.8197 0.85 17.0491 0.941667 17.2324 1.125C17.9824 1.925 18.5867 2.829 19.0454 3.837C19.5034 4.84567 19.7907 5.9 19.9074 7C19.9407 7.26667 19.8614 7.5 19.6694 7.7C19.4781 7.9 19.2407 8 18.9574 8ZM2.9574 17C2.67406 17 2.4364 16.904 2.2444 16.712C2.05306 16.5207 1.9574 16.2833 1.9574 16C1.9574 15.7167 2.05306 15.4793 2.2444 15.288C2.4364 15.096 2.67406 15 2.9574 15H3.9574V8C3.9574 6.61667 4.37406 5.38733 5.2074 4.312C6.04073 3.23733 7.12406 2.53333 8.4574 2.2V1.5C8.4574 1.08333 8.6034 0.729333 8.8954 0.438C9.18673 0.146 9.54073 0 9.9574 0C10.3741 0 10.7281 0.146 11.0194 0.438C11.3114 0.729333 11.4574 1.08333 11.4574 1.5V2.2C12.7907 2.53333 13.8741 3.23733 14.7074 4.312C15.5407 5.38733 15.9574 6.61667 15.9574 8V15H16.9574C17.2407 15 17.4781 15.096 17.6694 15.288C17.8614 15.4793 17.9574 15.7167 17.9574 16C17.9574 16.2833 17.8614 16.5207 17.6694 16.712C17.4781 16.904 17.2407 17 16.9574 17H2.9574ZM9.9574 20C9.4074 20 8.93673 19.8043 8.5454 19.413C8.1534 19.021 7.9574 18.55 7.9574 18H11.9574C11.9574 18.55 11.7617 19.021 11.3704 19.413C10.9784 19.8043 10.5074 20 9.9574 20Z" fill="#666666"/>
</svg>
