<svg width="24" height="24" viewBox="0 0 24 24" fill="none" xmlns="http://www.w3.org/2000/svg">
<path d="M1.14888 9.6C0.808876 9.6 0.524076 9.48 0.294476 9.24C0.0640759 9 -0.0311243 8.72 0.00887573 8.4C0.148876 7.08 0.494076 5.8148 1.04448 4.6044C1.59408 3.3948 2.31888 2.31 3.21888 1.35C3.43888 1.13 3.71888 1.02 4.05888 1.02C4.39888 1.02 4.68888 1.14 4.92888 1.38C5.14888 1.6 5.25888 1.87 5.25888 2.19C5.25888 2.51 5.14888 2.8 4.92888 3.06C4.22888 3.82 3.66408 4.6448 3.23448 5.5344C2.80408 6.4248 2.52888 7.38 2.40888 8.4C2.36888 8.74 2.23408 9.0248 2.00448 9.2544C1.77408 9.4848 1.48888 9.6 1.14888 9.6ZM22.7489 9.6C22.4289 9.6 22.1489 9.4848 21.9089 9.2544C21.6689 9.0248 21.5289 8.74 21.4889 8.4C21.3689 7.38 21.0941 6.4248 20.6645 5.5344C20.2341 4.6448 19.6689 3.82 18.9689 3.06C18.7489 2.8 18.6389 2.51 18.6389 2.19C18.6389 1.87 18.7589 1.6 18.9989 1.38C19.2389 1.14 19.5237 1.02 19.8533 1.02C20.1837 1.02 20.4589 1.13 20.6789 1.35C21.5789 2.31 22.3041 3.3948 22.8545 4.6044C23.4041 5.8148 23.7489 7.08 23.8889 8.4C23.9289 8.72 23.8337 9 23.6033 9.24C23.3737 9.48 23.0889 9.6 22.7489 9.6ZM3.54888 20.4C3.20888 20.4 2.92368 20.2848 2.69328 20.0544C2.46368 19.8248 2.34888 19.54 2.34888 19.2C2.34888 18.86 2.46368 18.5752 2.69328 18.3456C2.92368 18.1152 3.20888 18 3.54888 18H4.74888V9.6C4.74888 7.94 5.24888 6.4648 6.24888 5.1744C7.24888 3.8848 8.54888 3.04 10.1489 2.64V1.8C10.1489 1.3 10.3241 0.8752 10.6745 0.5256C11.0241 0.1752 11.4489 0 11.9489 0C12.4489 0 12.8737 0.1752 13.2233 0.5256C13.5737 0.8752 13.7489 1.3 13.7489 1.8V2.64C15.3489 3.04 16.6489 3.8848 17.6489 5.1744C18.6489 6.4648 19.1489 7.94 19.1489 9.6V18H20.3489C20.6889 18 20.9737 18.1152 21.2033 18.3456C21.4337 18.5752 21.5489 18.86 21.5489 19.2C21.5489 19.54 21.4337 19.8248 21.2033 20.0544C20.9737 20.2848 20.6889 20.4 20.3489 20.4H3.54888ZM11.9489 24C11.2889 24 10.7241 23.7652 10.2545 23.2956C9.78408 22.8252 9.54888 22.26 9.54888 21.6H14.3489C14.3489 22.26 14.1141 22.8252 13.6445 23.2956C13.1741 23.7652 12.6089 24 11.9489 24Z" fill="white"/>
</svg>
