<svg width="14" height="24" viewBox="0 0 14 24" fill="none" xmlns="http://www.w3.org/2000/svg">
<path d="M7.30667 10.5333C4.28 9.74667 3.30667 8.93333 3.30667 7.66667C3.30667 6.21333 4.65333 5.2 6.90667 5.2C9.28 5.2 10.16 6.33333 10.24 8H13.1867C13.0933 5.70667 11.6933 3.6 8.90667 2.92V0H4.90667V2.88C2.32 3.44 0.24 5.12 0.24 7.69333C0.24 10.7733 2.78667 12.3067 6.50667 13.2C9.84 14 10.5067 15.1733 10.5067 16.4133C10.5067 17.3333 9.85333 18.8 6.90667 18.8C4.16 18.8 3.08 17.5733 2.93333 16H0C0.16 18.92 2.34667 20.56 4.90667 21.1067V24H8.90667V21.1333C11.5067 20.64 13.5733 19.1333 13.5733 16.4C13.5733 12.6133 10.3333 11.32 7.30667 10.5333Z" fill="white"/>
</svg>
