<svg width="24" height="24" viewBox="0 0 24 24" fill="none" xmlns="http://www.w3.org/2000/svg">
<path d="M4.79795 11.8533L1.97384 10.6386C1.56895 10.4767 1.33128 10.1831 1.26083 9.75797C1.18957 9.33284 1.30577 8.96844 1.60944 8.66477L5.43566 4.83855C5.71908 4.55513 6.05311 4.35268 6.43776 4.23122C6.82241 4.10975 7.21717 4.08951 7.62206 4.17048L9.20114 4.50452C8.12818 5.77992 7.27305 6.93913 6.63575 7.98212C5.99764 9.02431 5.38504 10.3147 4.79795 11.8533ZM22.6536 0.0102331C22.8156 0.0102331 22.9775 0.0507221 23.1395 0.1317C23.3015 0.212678 23.4432 0.313901 23.5646 0.435368C23.6861 0.556835 23.7873 0.698547 23.8683 0.860503C23.9493 1.02246 23.9898 1.18442 23.9898 1.34637C24.0707 3.22911 23.6711 5.18271 22.7909 7.20716C21.9098 9.23162 20.6697 11.0435 19.0703 12.6428C17.9771 13.736 16.9244 14.6114 15.9122 15.2689C14.9 15.9273 13.7055 16.55 12.3289 17.1371C12.0657 17.2383 11.7977 17.2889 11.5248 17.2889C11.2511 17.2889 11.013 17.1877 10.8106 16.9853L7.01473 13.1894C6.81228 12.987 6.71106 12.7489 6.71106 12.4752C6.71106 12.2023 6.76167 11.9343 6.86289 11.6711C7.44999 10.3147 8.07271 9.12513 8.73106 8.10238C9.3886 7.08043 10.264 6.02286 11.3572 4.92965C12.9565 3.33034 14.7684 2.09016 16.7928 1.20911C18.8173 0.328882 20.7709 -0.070745 22.6536 0.0102331ZM14.9405 9.05954C15.4061 9.52516 15.9782 9.75797 16.6568 9.75797C17.3346 9.75797 17.9063 9.52516 18.3719 9.05954C18.8375 8.59391 19.0703 8.0218 19.0703 7.34321C19.0703 6.66542 18.8375 6.09371 18.3719 5.62809C17.9063 5.16247 17.3346 4.92965 16.6568 4.92965C15.9782 4.92965 15.4061 5.16247 14.9405 5.62809C14.4748 6.09371 14.242 6.66542 14.242 7.34321C14.242 8.0218 14.4748 8.59391 14.9405 9.05954ZM12.1467 19.202C13.6853 18.615 14.981 18.0028 16.0337 17.3655C17.0864 16.7274 18.2504 15.8718 19.5258 14.7989L19.8295 16.3779C19.9105 16.7828 19.8903 17.1829 19.7688 17.578C19.6473 17.9724 19.4449 18.3113 19.1614 18.5947L15.3352 22.4209C15.0316 22.7246 14.6672 22.8359 14.242 22.755C13.8169 22.674 13.5233 22.431 13.3614 22.0262L12.1467 19.202ZM2.27751 16.5905C2.98607 15.8819 3.84646 15.5224 4.85869 15.5119C5.87091 15.5022 6.73131 15.8516 7.43986 16.5601C8.14842 17.2687 8.5027 18.1291 8.5027 19.1413C8.5027 20.1535 8.14842 21.0139 7.43986 21.7225C6.93375 22.2286 6.08874 22.6639 4.90484 23.0283C3.72013 23.3927 2.08519 23.7166 0 24C0.283423 21.9148 0.607336 20.2851 0.971737 19.1109C1.33614 17.9368 1.7714 17.0966 2.27751 16.5905Z" fill="white"/>
</svg>
