<svg width="83" height="83" viewBox="0 0 83 83" fill="none" xmlns="http://www.w3.org/2000/svg">
<path d="M16 66.0195V37.7395L43.72 10.0195H8C3.6 10.0195 0 13.6195 0 18.0195V74.0195C0 78.4195 3.6 82.0195 8 82.0195H64C68.4 82.0195 72 78.4195 72 74.0195V38.2995L44.28 66.0195H16Z" fill="#494949"/>
<path d="M24 58.0198H40.96L69.76 29.2198L52.8 12.2598L24 41.0598V58.0198Z" fill="#494949"/>
<path d="M79.6404 7.98L74.0004 2.34C70.8804 -0.78 65.8004 -0.78 62.6804 2.34L58.4404 6.58L75.4004 23.54L79.6404 19.3C82.8004 16.18 82.8004 11.1 79.6404 7.98Z" fill="#494949"/>
</svg>
