<svg width="19" height="24" viewBox="0 0 19 24" fill="none" xmlns="http://www.w3.org/2000/svg">
<path d="M5.45455 24C4.85455 24 4.34091 23.7864 3.91364 23.3591C3.48636 22.9318 3.27273 22.4182 3.27273 21.8182V15.2727H5.45455V18.5455H16.3636V5.45455H5.45455V8.72727H3.27273V2.18182C3.27273 1.58182 3.48636 1.06818 3.91364 0.640909C4.34091 0.213636 4.85455 0 5.45455 0H16.3636C16.9636 0 17.4773 0.213636 17.9045 0.640909C18.3318 1.06818 18.5455 1.58182 18.5455 2.18182V21.8182C18.5455 22.4182 18.3318 22.9318 17.9045 23.3591C17.4773 23.7864 16.9636 24 16.3636 24H5.45455ZM8.89091 13.0909H1.09091C0.781818 13.0909 0.522727 12.9864 0.313636 12.7773C0.104545 12.5682 0 12.3091 0 12C0 11.6909 0.104545 11.4318 0.313636 11.2227C0.522727 11.0136 0.781818 10.9091 1.09091 10.9091H8.89091L7.93636 9.92727C7.73636 9.72727 7.63636 9.47727 7.63636 9.17727C7.63636 8.87727 7.74545 8.61818 7.96364 8.4C8.16364 8.2 8.41818 8.1 8.72727 8.1C9.03636 8.1 9.29091 8.2 9.49091 8.4L12.3273 11.2364C12.5455 11.4545 12.6545 11.7091 12.6545 12C12.6545 12.2909 12.5455 12.5455 12.3273 12.7636L9.49091 15.6C9.29091 15.8 9.04091 15.9045 8.74091 15.9136C8.44091 15.9227 8.18182 15.8182 7.96364 15.6C7.76364 15.4 7.65909 15.15 7.65 14.85C7.64091 14.55 7.73636 14.2909 7.93636 14.0727L8.89091 13.0909Z" fill="white"/>
</svg>
