<svg width="25" height="20" viewBox="0 0 25 20" fill="none" xmlns="http://www.w3.org/2000/svg">
<path d="M2.35294 11.7647C2.35294 8.88235 4.42353 6.50588 7.15294 5.98824L5.4 7.75294L7.05882 9.41177L11.7647 4.69412L7.05882 0L5.4 1.65882L7.25882 3.51765V3.58824C3.17647 4.07059 0 7.55294 0 11.7647C0 16.3176 3.68235 20 8.23529 20H11.7647V17.6471H8.23529C4.98824 17.6471 2.35294 15.0118 2.35294 11.7647Z" fill="#494949"/>
<path d="M14.1172 11.7656V20.0009H24.7054V11.7656H14.1172ZM22.3525 17.648H16.4701V14.1186H22.3525V17.648Z" fill="#494949"/>
<path d="M24.7054 1.17578H14.1172V9.41108H24.7054V1.17578Z" fill="#494949"/>
</svg>
