<svg width="21" height="20" viewBox="0 0 21 20" fill="none" xmlns="http://www.w3.org/2000/svg">
<path d="M20.4692 7.91111H12.9359L15.9803 4.77778C12.947 1.77778 8.0359 1.66667 5.00256 4.66667C1.96923 7.67778 1.96923 12.5333 5.00256 15.5444C8.0359 18.5556 12.947 18.5556 15.9803 15.5444C17.4914 14.0556 18.247 12.3111 18.247 10.1111H20.4692C20.4692 12.3111 19.4915 15.1667 17.5359 17.1C13.6359 20.9667 7.30256 20.9667 3.40256 17.1C-0.486326 13.2444 -0.519659 6.97778 3.38034 3.12222C7.28034 -0.733333 13.5359 -0.733333 17.4359 3.12222L20.4692 0V7.91111ZM11.0248 5.55556V10.2778L14.9137 12.5889L14.1137 13.9333L9.35812 11.1111V5.55556H11.0248Z" fill="#494949"/>
</svg>
